Coordinates
version=1
nRows=29
nColumns=22
inDegrees=yes

Units are S.I. units (second, meters, Newtons, ...)
If the header above contains a line with 'inDegrees', this indicates whether rotational values are in degrees (yes) or radians (no).

endheader
time	pelvis_tilt	pelvis_list	pelvis_rotation	pelvis_tx	pelvis_ty	pelvis_tz	hip_flexion_r	hip_adduction_r	hip_rotation_r	knee_angle_r	ankle_angle_r	subtalar_angle_r	hip_flexion_l	hip_adduction_l	hip_rotation_l	knee_angle_l	ankle_angle_l	subtalar_angle_l	lumbar_extension	lumbar_bending	lumbar_rotation
      1.83000000	      3.07850989	     -0.75426067	    121.57266175	     -0.36189607	      0.93749189	      0.65279497	     -2.97654108	     13.82975322	     10.49413133	    -11.60245066	     13.77524649	    -11.81291294	     30.67706850	     -5.41628840	     14.17955364	    -23.00462931	     12.14066741	     12.47494385	     -6.41152064	      1.47042274	     10.15621457
      1.84000000	      3.13409483	     -0.88807839	    120.84170762	     -0.36551253	      0.93589393	      0.64550904	     -3.11437016	     13.82625668	     11.10626900	    -12.24459516	     14.23724243	    -11.81067719	     30.44467995	     -5.48834306	     14.89594997	    -20.21972765	     12.40681488	     12.81699347	     -6.33494562	      1.41747015	     10.35995300
      1.85000000	      3.17711687	     -1.02231509	    120.14745593	     -0.36913043	      0.93429148	      0.63817351	     -3.22343052	     13.82690529	     11.71573881	    -12.95188122	     14.68986347	    -11.79044231	     30.24634607	     -5.55662997	     15.50614061	    -17.73156209	     12.57587407	     13.14866016	     -6.26580805	      1.34968420	     10.49881556
      1.86000000	      3.18689852	     -1.13728990	    119.46540189	     -0.37277273	      0.93277180	      0.63071429	     -3.35853513	     13.81181793	     12.28370327	    -13.68749092	     15.10098131	    -11.71753377	     30.05482944	     -5.61019649	     15.93389160	    -15.58958865	     12.71602312	     13.52443144	     -6.22489100	      1.25356536	     10.65242796
      1.87000000	      3.18394276	     -1.26021476	    118.81424055	     -0.37646356	      0.93129120	      0.62317593	     -3.47982143	     13.78603098	     12.82141032	    -14.45338410	     15.48483672	    -11.62916349	     29.93344317	     -5.61631433	     16.22150481	    -13.85971122	     12.77085496	     13.88343573	     -6.17252782	      1.14170684	     10.76779088
      1.88000000	      3.15530640	     -1.36498533	    118.17522209	     -0.38019816	      0.92992624	      0.61549817	     -3.64000054	     13.74266408	     13.31710934	    -15.21607829	     15.82403019	    -11.48281299	     29.84528699	     -5.57578715	     16.34455026	    -12.55927191	     12.82347529	     14.29769557	     -6.13843554	      1.01021741	     10.88682077
      1.89000000	      3.10710074	     -1.47496623	    117.55516529	     -0.38398065	      0.92865311	      0.60770628	     -3.80328478	     13.67708874	     13.78242703	    -15.99214134	     16.10160524	    -11.35462683	     29.82531751	     -5.46299369	     16.37933947	    -11.71589244	     12.80998684	     14.65352322	     -6.09511423	      0.85411626	     10.98530505
      1.90000000	      3.05530706	     -1.57715296	    116.95478947	     -0.38782155	      0.92749814	      0.59976266	     -3.99638610	     13.60433943	     14.21437677	    -16.74124441	     16.32463567	    -11.26400529	     29.85153947	     -5.29899192	     16.38820173	    -11.29478588	     12.70775384	     14.91723543	     -6.04330070	      0.69797269	     11.07082132
      1.91000000	      2.99419796	     -1.66070010	    116.34269938	     -0.39166761	      0.92648798	      0.59161796	     -4.22700305	     13.52210660	     14.62682542	    -17.47898278	     16.45036278	    -11.13497036	     29.89949049	     -5.10365531	     16.37067450	    -11.27816981	     12.62656323	     15.15345380	     -5.99481373	      0.53358484	     11.19139232
      1.92000000	      2.96207941	     -1.71998533	    115.73625742	     -0.39552446	      0.92560236	      0.58329722	     -4.47736984	     13.46884842	     15.00966012	    -18.20627994	     16.49280248	    -10.83501594	     29.97476319	     -4.90878242	     16.40407166	    -11.61840836	     12.54132511	     15.42563139	     -5.93995946	      0.40673821	     11.31998059
      1.93000000	      2.93300392	     -1.78012139	    115.12168688	     -0.39935349	      0.92485271	      0.57475165	     -4.74900303	     13.41356364	     15.42001305	    -18.90658100	     16.42437069	    -10.73692195	     30.02697083	     -4.69774799	     16.53790684	    -12.18886590	     12.28484715	     15.44396178	     -5.86285675	      0.26955314	     11.45791866
      1.94000000	      2.94346856	     -1.85302613	    114.49755689	     -0.40317265	      0.92416920	      0.56601257	     -4.99317315	     13.38173043	     15.83802625	    -19.61184439	     16.29814572	    -10.43589971	     30.10056569	     -4.49536174	     16.76838189	    -12.98349155	     11.99993389	     15.28445001	     -5.73417575	      0.16424869	     11.60139197
      1.95000000	      2.96985091	     -1.93355182	    113.85745521	     -0.40693937	      0.92363236	      0.55704191	     -5.24924283	     13.35627212	     16.30781725	    -20.27892845	     16.00143775	    -10.20753779	     30.12227581	     -4.30291415	     17.13302580	    -13.86726675	     11.58649287	     15.10205228	     -5.57106815	      0.05847645	     11.77623788
      1.96000000	      3.03188996	     -2.02870691	    113.23042982	     -0.41070056	      0.92315507	      0.54797735	     -5.42563931	     13.35662296	     16.69656545	    -21.02206697	     15.69812323	     -9.76895228	     30.14275968	     -4.10894899	     17.64631746	    -14.84518744	     11.02743852	     14.57349672	     -5.37436713	     -0.01393584	     11.91610506
      1.97000000	      3.09182818	     -2.15402710	    112.59437912	     -0.41441998	      0.92281313	      0.53873582	     -5.56323191	     13.34073384	     17.10272827	    -21.77889250	     15.25276393	     -9.31199780	     30.11857879	     -3.90387384	     18.27366643	    -15.81926831	     10.35617062	     14.02826658	     -5.13412884	     -0.10915141	     12.05011015
      1.98000000	      3.15110782	     -2.32419600	    111.96592245	     -0.41810981	      0.92256425	      0.52938978	     -5.60759711	     13.31192281	     17.47759877	    -22.60615741	     14.71358438	     -8.76597509	     30.09417135	     -3.67620925	     18.98342942	    -16.78998553	      9.57503965	     13.40542641	     -4.84265702	     -0.22691235	     12.14937264
      1.99000000	      3.15529253	     -2.50076043	    111.35051146	     -0.42182203	      0.92252055	      0.51993780	     -5.60166511	     13.22768145	     17.76966713	    -23.52291442	     14.06912488	     -7.99624212	     30.01134269	     -3.39664836	     19.70085291	    -17.73032879	      8.70718808	     12.71603440	     -4.56557641	     -0.40194626	     12.19843978
      2.00000000	      3.19182399	     -2.74725911	    110.76019471	     -0.42545475	      0.92249115	      0.51047612	     -5.40275987	     13.17686446	     17.99624634	    -24.59443557	     13.32298161	     -7.22084704	     30.02839930	     -3.12590375	     20.39812949	    -18.69600243	      7.81264919	     12.14004981	     -4.20635806	     -0.57456007	     12.19624129
      2.01000000	      3.16568753	     -2.97483464	    110.18712430	     -0.42906136	      0.92269859	      0.50092139	     -5.13817591	     13.08469501	     18.10055033	    -25.80792467	     12.43520782	     -6.10232741	     29.99060285	     -2.82916822	     20.97070445	    -19.63955612	      6.92570949	     11.55910927	     -3.89480685	     -0.80940432	     12.13566642
      2.02000000	      3.09516085	     -3.14690035	    109.62347224	     -0.43260486	      0.92317185	      0.49125763	     -4.82946674	     12.98435160	     18.10118203	    -27.16563700	     11.35190301	     -4.55912759	     29.88320996	     -2.55363716	     21.33765182	    -20.57956731	      6.18220750	     11.07648613	     -3.66271118	     -1.07151922	     12.01178293
      2.03000000	      3.03633711	     -3.30824999	    109.07635069	     -0.43601592	      0.92376739	      0.48160773	     -4.35102939	     12.92380411	     17.94363674	    -28.74603885	     10.12023115	     -2.81045069	     29.78054883	     -2.33836834	     21.54024063	    -21.50830150	      5.50562393	     10.74024660	     -3.45148989	     -1.31966181	     11.84020355
      2.04000000	      2.98004570	     -3.43243562	    108.53311796	     -0.43928044	      0.92449825	      0.47196285	     -3.71765887	     12.88885196	     17.59795375	    -30.55630763	      8.70339819	     -0.76742275	     29.64118685	     -2.19859931	     21.52275865	    -22.41114266	      5.02127953	     10.46825717	     -3.29285111	     -1.55250701	     11.61089939
      2.05000000	      2.93205247	     -3.50791379	    107.98611848	     -0.44240356	      0.92534164	      0.46238855	     -2.93117682	     12.87224963	     17.06937695	    -32.59093340	      7.13895986	      1.57424245	     29.46464110	     -2.13559213	     21.30180481	    -23.30635839	      4.71881699	     10.23076599	     -3.20315323	     -1.75186186	     11.35528686
      2.06000000	      2.88483957	     -3.52509464	    107.40784815	     -0.44531349	      0.92632055	      0.45292521	     -1.99102139	     12.86191975	     16.39836304	    -34.85890381	      5.44717972	      4.16814177	     29.17554884	     -2.16463324	     20.92471678	    -24.08290882	      4.57232786	     10.01055463	     -3.20254259	     -1.92546151	     11.07833487
      2.07000000	      2.83568630	     -3.51267713	    106.80352302	     -0.44808770	      0.92731945	      0.44366888	     -0.86302396	     12.81701486	     15.55674745	    -37.35319744	      3.72819597	      6.80866178	     28.84087697	     -2.24224164	     20.40033132	    -24.81286061	      4.62350260	      9.74765355	     -3.26695619	     -2.07208506	     10.76840373
      2.08000000	      2.77024532	     -3.48629948	    106.16907158	     -0.45073422	      0.92828838	      0.43468275	      0.46196314	     12.70455670	     14.57185463	    -40.06197166	      2.09777587	      9.32471371	     28.45961119	     -2.33753025	     19.77433231	    -25.47612691	      4.82302655	      9.42928071	     -3.38723498	     -2.20920308	     10.43189432
      2.09000000	      2.68035250	     -3.46981570	    105.49847399	     -0.45326057	      0.92918410	      0.42598569	      1.99432379	     12.48472629	     13.43971369	    -42.95718869	      0.66751978	     11.40694040	     28.03249447	     -2.43460922	     19.07205441	    -26.03554324	      5.15290172	      9.05387134	     -3.53638064	     -2.35201151	     10.06348214
      2.10000000	      2.54091782	     -3.45281669	    104.79731829	     -0.45571043	      0.93003517	      0.41757343	      3.67856539	     12.11640084	     12.19311530	    -45.97113599	     -0.48320943	     12.88822921	     27.53944193	     -2.50144184	     18.30145025	    -26.48864065	      5.56775285	      8.64594753	     -3.73122647	     -2.52234274	      9.65407757
      2.11000000	      2.33303229	     -3.43627135	    104.07423202	     -0.45812938	      0.93084334	      0.40942931	      5.47463338	     11.56870188	     10.86502224	    -49.04217509	     -1.29575474	     13.49449042	     26.98717265	     -2.50849553	     17.46464955	    -26.85208587	      6.03915367	      8.26700006	     -3.96715248	     -2.73833529	      9.19161586
